<!DOCTYPE svg PUBLIC "-//W3C//DTD SVG 1.1//EN" "http://www.w3.org/Graphics/SVG/1.1/DTD/svg11.dtd">
<!-- Uploaded to: SVG Repo, www.svgrepo.com, Transformed by: SVG Repo Mixer Tools -->
<svg fill="#000000" width="800px" height="800px" viewBox="0 0 32 32" version="1.1" xmlns="http://www.w3.org/2000/svg">
<g id="SVGRepo_bgCarrier" stroke-width="0"/>
<g id="SVGRepo_tracerCarrier" stroke-linecap="round" stroke-linejoin="round"/>
<g id="SVGRepo_iconCarrier"> <title>diploma</title> <path d="M30.188 18.654l-1.678-0.991 1.613-0.973c0.364-0.223 0.603-0.619 0.603-1.071 0-0.137-0.022-0.269-0.063-0.393l0.003 0.009c-0.161-0.506-0.627-0.867-1.178-0.867-0.041 0-0.081 0.002-0.12 0.006l0.005-0-5.809 0.487c1.793-1.62 3.632-3.203 5.534-4.728 0.038-0.030 0.072-0.059 0.104-0.091l-0 0c0.586-0.589 0.949-1.401 0.949-2.297s-0.363-1.71-0.951-2.299l-3.418-3.417c-0.585-0.589-1.395-0.953-2.29-0.953-0.003 0-0.005 0-0.008 0h-0.002c-0.944 0.007-1.793 0.411-2.389 1.053l-0.002 0.002c-5.665 7.059-11.881 13.272-18.709 18.752l-0.235 0.182c-0.586 0.589-0.948 1.401-0.948 2.297s0.363 1.709 0.949 2.298l3.419 3.418c0.577 0.579 1.375 0.938 2.257 0.938 0 0 0.001 0 0.002 0h-0c0.955-0.008 1.815-0.406 2.431-1.042l0.001-0.001c1.466-1.843 3.009-3.642 4.603-5.409l-0.555 5.995c-0.003 0.035-0.005 0.075-0.005 0.115 0 0.69 0.56 1.25 1.25 1.25 0.456 0 0.855-0.244 1.074-0.61l0.003-0.006 0.991-1.678 0.973 1.613c0.223 0.365 0.619 0.605 1.071 0.605 0.69 0 1.25-0.56 1.25-1.25 0-0.037-0.002-0.074-0.005-0.11l0 0.005-0.787-9.382 9.317 0.862c0.039 0.004 0.078 0.006 0.115 0.006 0 0 0 0 0 0 0.69 0 1.25-0.559 1.25-1.25 0-0.456-0.244-0.855-0.61-1.073l-0.006-0.003zM22.953 3.795c0.135-0.136 0.321-0.22 0.528-0.22 0.001 0 0.001 0 0.002 0h0.002c0 0 0 0 0 0 0.207 0 0.394 0.084 0.529 0.22l3.418 3.418c0.136 0.136 0.22 0.324 0.22 0.532 0 0.189-0.069 0.361-0.184 0.493l0.001-0.001c-2.286 1.836-4.468 3.764-6.597 5.73l-3.611-3.604c1.963-2.128 3.881-4.302 5.692-6.567zM15.543 12.179l3.514 3.507q-1.792 1.723-3.494 3.499l-3.512-3.518q1.78-1.706 3.493-3.487zM8.396 27.309c-0.136 0.136-0.323 0.22-0.53 0.22s-0.395-0.084-0.53-0.22v0l-3.418-3.416c-0.144-0.138-0.234-0.333-0.234-0.548 0-0.156 0.047-0.301 0.128-0.422l-0.002 0.003c2.203-1.75 4.331-3.62 6.422-5.543l3.611 3.618c-1.898 2.063-3.738 4.157-5.447 6.308zM17.607 24.941c0 0-0 0-0 0-0.131 0-0.257 0.020-0.376 0.057l0.009-0.002 0.405-4.377 0.008-0.009 0.369 4.401c-0.124-0.044-0.267-0.070-0.416-0.070h-0zM24.875 18.043l-4.257-0.395 0.036-0.034 4.236-0.355c-0.045 0.124-0.070 0.268-0.070 0.418 0 0.002 0 0.003 0 0.005v-0c0 0.129 0.020 0.254 0.057 0.371l-0.002-0.009z"/> </g>
</svg>